# xmcd
#
# Track frame offsets:
#	150
#	17446
#	35010
#	51574
#	68914
#	87986
#	104178
#	125126
#	141514
#	162790
#
# Disc length: 2347 seconds
#
# Revision: 0
# Processed by: cddbd v1.5.2PL0 Copyright (c) Steve Scherf et al.
# Submitted via: EasyCDDAExtractor 11.6.0.1
#
DISCID=9709290a
DTITLE=林芸+江念庭 - [1991] 忘你一次伤心一次
DYEAR=1991
DGENRE=
TTITLE0=忘你一次伤心一次
TTITLE1=让我一次爱个够
TTITLE2=一场游戏一场梦
TTITLE3=半梦半醒之间
TTITLE4=酒矸倘卖无
TTITLE5=心情
TTITLE6=青梅竹马
TTITLE7=我的爱那么容易受伤害
TTITLE8=风中的承诺
TTITLE9=其实你不懂我的心
EXTD=
EXTT0=
EXTT1=
EXTT2=
EXTT3=
EXTT4=
EXTT5=
EXTT6=
EXTT7=
EXTT8=
EXTT9=
PLAYORDER=
